<?xml version="1.0" encoding="UTF-8" standalone="no"?>
<!DOCTYPE svg PUBLIC "-//W3C//DTD SVG 1.1//EN"
 "http://www.w3.org/Graphics/SVG/1.1/DTD/svg11.dtd">
<!-- Generated by graphviz version 2.47.3 (0)
 -->
<!-- Title: snakemake_dag Pages: 1 -->
<svg width="818pt" height="764pt"
 viewBox="0.00 0.00 818.00 764.00" xmlns="http://www.w3.org/2000/svg" xmlns:xlink="http://www.w3.org/1999/xlink">
<g id="graph0" class="graph" transform="scale(1 1) rotate(0) translate(4 760)">
<title>snakemake_dag</title>
<polygon fill="white" stroke="transparent" points="-4,4 -4,-760 814,-760 814,4 -4,4"/>
<!-- 0 -->
<g id="node1" class="node">
<title>0</title>
<path fill="none" stroke="#56c9d8" stroke-width="2" d="M479,-36C479,-36 449,-36 449,-36 443,-36 437,-30 437,-24 437,-24 437,-12 437,-12 437,-6 443,0 449,0 449,0 479,0 479,0 485,0 491,-6 491,-12 491,-12 491,-24 491,-24 491,-30 485,-36 479,-36"/>
<text text-anchor="middle" x="464" y="-15.5" font-family="sans" font-size="10.00">all</text>
</g>
<!-- 1 -->
<g id="node2" class="node">
<title>1</title>
<path fill="none" stroke="#56d8a9" stroke-width="2" d="M731.5,-612C731.5,-612 586.5,-612 586.5,-612 580.5,-612 574.5,-606 574.5,-600 574.5,-600 574.5,-588 574.5,-588 574.5,-582 580.5,-576 586.5,-576 586.5,-576 731.5,-576 731.5,-576 737.5,-576 743.5,-582 743.5,-588 743.5,-588 743.5,-600 743.5,-600 743.5,-606 737.5,-612 731.5,-612"/>
<text text-anchor="middle" x="659" y="-591.5" font-family="sans" font-size="10.00">somatic_cnv_facets_tumor_normal</text>
</g>
<!-- 1&#45;&gt;0 -->
<g id="edge6" class="edge">
<title>1&#45;&gt;0</title>
<path fill="none" stroke="grey" stroke-width="2" d="M713.51,-575.93C733.25,-567.61 754.48,-555.88 770,-540 800.31,-508.98 810,-494.37 810,-451 810,-451 810,-451 810,-161 810,-101.5 763.05,-98.93 710,-72 641.63,-37.29 551.37,-25.26 501.38,-21.13"/>
<polygon fill="grey" stroke="grey" stroke-width="2" points="501.59,-17.64 491.35,-20.36 501.05,-24.61 501.59,-17.64"/>
</g>
<!-- 5 -->
<g id="node6" class="node">
<title>5</title>
<path fill="none" stroke="#56a9d8" stroke-width="2" d="M616,-540C616,-540 542,-540 542,-540 536,-540 530,-534 530,-528 530,-528 530,-516 530,-516 530,-510 536,-504 542,-504 542,-504 616,-504 616,-504 622,-504 628,-510 628,-516 628,-516 628,-528 628,-528 628,-534 622,-540 616,-540"/>
<text text-anchor="middle" x="579" y="-519.5" font-family="sans" font-size="10.00">somatic_cnv_table</text>
</g>
<!-- 1&#45;&gt;5 -->
<g id="edge13" class="edge">
<title>1&#45;&gt;5</title>
<path fill="none" stroke="grey" stroke-width="2" d="M639.22,-575.7C629.25,-566.97 616.99,-556.24 606.14,-546.75"/>
<polygon fill="grey" stroke="grey" stroke-width="2" points="608.38,-544.06 598.55,-540.1 603.77,-549.32 608.38,-544.06"/>
</g>
<!-- 8 -->
<g id="node9" class="node">
<title>8</title>
<path fill="none" stroke="#d87556" stroke-width="2" d="M731.5,-468C731.5,-468 618.5,-468 618.5,-468 612.5,-468 606.5,-462 606.5,-456 606.5,-456 606.5,-444 606.5,-444 606.5,-438 612.5,-432 618.5,-432 618.5,-432 731.5,-432 731.5,-432 737.5,-432 743.5,-438 743.5,-444 743.5,-444 743.5,-456 743.5,-456 743.5,-462 737.5,-468 731.5,-468"/>
<text text-anchor="middle" x="675" y="-447.5" font-family="sans" font-size="10.00">somatic_cnv_chr_arm_sum</text>
</g>
<!-- 1&#45;&gt;8 -->
<g id="edge18" class="edge">
<title>1&#45;&gt;8</title>
<path fill="none" stroke="grey" stroke-width="2" d="M660.93,-575.87C663.66,-551.67 668.67,-507.21 671.91,-478.39"/>
<polygon fill="grey" stroke="grey" stroke-width="2" points="675.42,-478.52 673.06,-468.19 668.47,-477.73 675.42,-478.52"/>
</g>
<!-- 16 -->
<g id="node17" class="node">
<title>16</title>
<path fill="none" stroke="#59d856" stroke-width="2" d="M492,-108C492,-108 436,-108 436,-108 430,-108 424,-102 424,-96 424,-96 424,-84 424,-84 424,-78 430,-72 436,-72 436,-72 492,-72 492,-72 498,-72 504,-78 504,-84 504,-84 504,-96 504,-96 504,-102 498,-108 492,-108"/>
<text text-anchor="middle" x="464" y="-87.5" font-family="sans" font-size="10.00">upload_results</text>
</g>
<!-- 1&#45;&gt;16 -->
<g id="edge29" class="edge">
<title>1&#45;&gt;16</title>
<path fill="none" stroke="grey" stroke-width="2" d="M575.87,-575.98C555.38,-568.13 535.26,-556.68 521,-540 494.72,-509.25 502,-491.45 502,-451 502,-451 502,-451 502,-233 502,-191.63 486.77,-145.72 475.59,-117.61"/>
<polygon fill="grey" stroke="grey" stroke-width="2" points="478.72,-116.02 471.69,-108.09 472.24,-118.67 478.72,-116.02"/>
</g>
<!-- 17 -->
<g id="node18" class="node">
<title>17</title>
<path fill="none" stroke="#afd856" stroke-width="2" d="M770,-396C770,-396 716,-396 716,-396 710,-396 704,-390 704,-384 704,-384 704,-372 704,-372 704,-366 710,-360 716,-360 716,-360 770,-360 770,-360 776,-360 782,-366 782,-372 782,-372 782,-384 782,-384 782,-390 776,-396 770,-396"/>
<text text-anchor="middle" x="743" y="-375.5" font-family="sans" font-size="10.00">remove_bams</text>
</g>
<!-- 1&#45;&gt;17 -->
<g id="edge32" class="edge">
<title>1&#45;&gt;17</title>
<path fill="none" stroke="grey" stroke-width="2" d="M707.72,-575.88C723.97,-567.63 740.37,-555.97 750,-540 775,-498.53 762.99,-439.53 752.59,-405.67"/>
<polygon fill="grey" stroke="grey" stroke-width="2" points="755.88,-404.45 749.46,-396.02 749.22,-406.61 755.88,-404.45"/>
</g>
<!-- 2 -->
<g id="node3" class="node">
<title>2</title>
<path fill="none" stroke="#56d8c9" stroke-width="2" d="M642,-684C642,-684 584,-684 584,-684 578,-684 572,-678 572,-672 572,-672 572,-660 572,-660 572,-654 578,-648 584,-648 584,-648 642,-648 642,-648 648,-648 654,-654 654,-660 654,-660 654,-672 654,-672 654,-678 648,-684 642,-684"/>
<text text-anchor="middle" x="613" y="-663.5" font-family="sans" font-size="10.00">get_snp_pileup</text>
</g>
<!-- 2&#45;&gt;1 -->
<g id="edge10" class="edge">
<title>2&#45;&gt;1</title>
<path fill="none" stroke="grey" stroke-width="2" d="M624.37,-647.7C629.72,-639.56 636.2,-629.69 642.11,-620.7"/>
<polygon fill="grey" stroke="grey" stroke-width="2" points="645.19,-622.38 647.76,-612.1 639.34,-618.54 645.19,-622.38"/>
</g>
<!-- 3 -->
<g id="node4" class="node">
<title>3</title>
<path fill="none" stroke="#70d856" stroke-width="2" d="M642,-756C642,-756 584,-756 584,-756 578,-756 572,-750 572,-744 572,-744 572,-732 572,-732 572,-726 578,-720 584,-720 584,-720 642,-720 642,-720 648,-720 654,-726 654,-732 654,-732 654,-744 654,-744 654,-750 648,-756 642,-756"/>
<text text-anchor="middle" x="613" y="-735.5" font-family="sans" font-size="10.00">download_bam</text>
</g>
<!-- 3&#45;&gt;2 -->
<g id="edge12" class="edge">
<title>3&#45;&gt;2</title>
<path fill="none" stroke="grey" stroke-width="2" d="M613,-719.7C613,-711.98 613,-702.71 613,-694.11"/>
<polygon fill="grey" stroke="grey" stroke-width="2" points="616.5,-694.1 613,-684.1 609.5,-694.1 616.5,-694.1"/>
</g>
<!-- 4 -->
<g id="node5" class="node">
<title>4</title>
<path fill="none" stroke="#c6d856" stroke-width="2" d="M727.5,-684C727.5,-684 684.5,-684 684.5,-684 678.5,-684 672.5,-678 672.5,-672 672.5,-672 672.5,-660 672.5,-660 672.5,-654 678.5,-648 684.5,-648 684.5,-648 727.5,-648 727.5,-648 733.5,-648 739.5,-654 739.5,-660 739.5,-660 739.5,-672 739.5,-672 739.5,-678 733.5,-684 727.5,-684"/>
<text text-anchor="middle" x="706" y="-663.5" font-family="sans" font-size="10.00">setup_main</text>
</g>
<!-- 4&#45;&gt;1 -->
<g id="edge11" class="edge">
<title>4&#45;&gt;1</title>
<path fill="none" stroke="grey" stroke-width="2" d="M694.38,-647.7C688.86,-639.47 682.15,-629.48 676.07,-620.42"/>
<polygon fill="grey" stroke="grey" stroke-width="2" points="678.96,-618.46 670.48,-612.1 673.15,-622.36 678.96,-618.46"/>
</g>
<!-- 5&#45;&gt;0 -->
<g id="edge1" class="edge">
<title>5&#45;&gt;0</title>
<path fill="none" stroke="grey" stroke-width="2" d="M579.23,-503.7C579.51,-449.5 577.11,-278.57 539,-144 529.73,-111.26 530.68,-101.07 513,-72 506.82,-61.84 498.48,-51.92 490.44,-43.47"/>
<polygon fill="grey" stroke="grey" stroke-width="2" points="492.73,-40.8 483.21,-36.15 487.75,-45.72 492.73,-40.8"/>
</g>
<!-- 6 -->
<g id="node7" class="node">
<title>6</title>
<path fill="none" stroke="#5673d8" stroke-width="2" d="M406.5,-468C406.5,-468 337.5,-468 337.5,-468 331.5,-468 325.5,-462 325.5,-456 325.5,-456 325.5,-444 325.5,-444 325.5,-438 331.5,-432 337.5,-432 337.5,-432 406.5,-432 406.5,-432 412.5,-432 418.5,-438 418.5,-444 418.5,-444 418.5,-456 418.5,-456 418.5,-462 412.5,-468 406.5,-468"/>
<text text-anchor="middle" x="372" y="-447.5" font-family="sans" font-size="10.00">somatic_cnv_bed</text>
</g>
<!-- 5&#45;&gt;6 -->
<g id="edge14" class="edge">
<title>5&#45;&gt;6</title>
<path fill="none" stroke="grey" stroke-width="2" d="M529.94,-504.41C499.39,-494.08 459.99,-480.75 428.18,-470"/>
<polygon fill="grey" stroke="grey" stroke-width="2" points="429.17,-466.64 418.57,-466.75 426.92,-473.27 429.17,-466.64"/>
</g>
<!-- 5&#45;&gt;8 -->
<g id="edge17" class="edge">
<title>5&#45;&gt;8</title>
<path fill="none" stroke="grey" stroke-width="2" d="M602.73,-503.7C614.94,-494.8 629.99,-483.82 643.18,-474.2"/>
<polygon fill="grey" stroke="grey" stroke-width="2" points="645.52,-476.82 651.54,-468.1 641.4,-471.17 645.52,-476.82"/>
</g>
<!-- 5&#45;&gt;16 -->
<g id="edge25" class="edge">
<title>5&#45;&gt;16</title>
<path fill="none" stroke="grey" stroke-width="2" d="M571.11,-503.93C559.71,-477.67 540,-425.53 540,-379 540,-379 540,-379 540,-233 540,-192.03 536.34,-179.56 516,-144 509.96,-133.44 501.31,-123.47 492.79,-115.08"/>
<polygon fill="grey" stroke="grey" stroke-width="2" points="495.09,-112.44 485.41,-108.14 490.3,-117.54 495.09,-112.44"/>
</g>
<!-- 6&#45;&gt;0 -->
<g id="edge9" class="edge">
<title>6&#45;&gt;0</title>
<path fill="none" stroke="grey" stroke-width="2" d="M325.26,-441.31C225.35,-423.56 0,-375.87 0,-307 0,-307 0,-307 0,-161 0,-108.11 32.35,-96.93 79,-72 138.85,-40.01 342.33,-25.57 426.79,-20.85"/>
<polygon fill="grey" stroke="grey" stroke-width="2" points="427.16,-24.34 436.95,-20.3 426.78,-17.35 427.16,-24.34"/>
</g>
<!-- 7 -->
<g id="node8" class="node">
<title>7</title>
<path fill="none" stroke="#56d873" stroke-width="2" d="M354,-396C354,-396 280,-396 280,-396 274,-396 268,-390 268,-384 268,-384 268,-372 268,-372 268,-366 274,-360 280,-360 280,-360 354,-360 354,-360 360,-360 366,-366 366,-372 366,-372 366,-384 366,-384 366,-390 360,-396 354,-396"/>
<text text-anchor="middle" x="317" y="-375.5" font-family="sans" font-size="10.00">somatic_cnv_calls</text>
</g>
<!-- 6&#45;&gt;7 -->
<g id="edge15" class="edge">
<title>6&#45;&gt;7</title>
<path fill="none" stroke="grey" stroke-width="2" d="M358.4,-431.7C351.88,-423.39 343.93,-413.28 336.75,-404.14"/>
<polygon fill="grey" stroke="grey" stroke-width="2" points="339.37,-401.81 330.44,-396.1 333.87,-406.13 339.37,-401.81"/>
</g>
<!-- 6&#45;&gt;16 -->
<g id="edge31" class="edge">
<title>6&#45;&gt;16</title>
<path fill="none" stroke="grey" stroke-width="2" d="M392.88,-431.63C420.02,-406.97 464,-358.99 464,-307 464,-307 464,-307 464,-233 464,-193 464,-146.65 464,-118.08"/>
<polygon fill="grey" stroke="grey" stroke-width="2" points="467.5,-118.05 464,-108.05 460.5,-118.05 467.5,-118.05"/>
</g>
<!-- 7&#45;&gt;0 -->
<g id="edge4" class="edge">
<title>7&#45;&gt;0</title>
<path fill="none" stroke="grey" stroke-width="2" d="M267.97,-373.33C201.09,-367.29 86.21,-352.94 57,-324 28.27,-295.53 38,-275.45 38,-235 38,-235 38,-235 38,-161 38,-79.41 322.78,-36.31 426.66,-23.31"/>
<polygon fill="grey" stroke="grey" stroke-width="2" points="427.21,-26.76 436.7,-22.07 426.35,-19.82 427.21,-26.76"/>
</g>
<!-- 12 -->
<g id="node13" class="node">
<title>12</title>
<path fill="none" stroke="#d88d56" stroke-width="2" d="M386,-324C386,-324 248,-324 248,-324 242,-324 236,-318 236,-312 236,-312 236,-300 236,-300 236,-294 242,-288 248,-288 248,-288 386,-288 386,-288 392,-288 398,-294 398,-300 398,-300 398,-312 398,-312 398,-318 392,-324 386,-324"/>
<text text-anchor="middle" x="317" y="-303.5" font-family="sans" font-size="10.00">somatic_cna_oncokb_preprocess</text>
</g>
<!-- 7&#45;&gt;12 -->
<g id="edge21" class="edge">
<title>7&#45;&gt;12</title>
<path fill="none" stroke="grey" stroke-width="2" d="M317,-359.7C317,-351.98 317,-342.71 317,-334.11"/>
<polygon fill="grey" stroke="grey" stroke-width="2" points="320.5,-334.1 317,-324.1 313.5,-334.1 320.5,-334.1"/>
</g>
<!-- 15 -->
<g id="node16" class="node">
<title>15</title>
<path fill="none" stroke="#5692d8" stroke-width="2" d="M205.5,-324C205.5,-324 78.5,-324 78.5,-324 72.5,-324 66.5,-318 66.5,-312 66.5,-312 66.5,-300 66.5,-300 66.5,-294 72.5,-288 78.5,-288 78.5,-288 205.5,-288 205.5,-288 211.5,-288 217.5,-294 217.5,-300 217.5,-300 217.5,-312 217.5,-312 217.5,-318 211.5,-324 205.5,-324"/>
<text text-anchor="middle" x="142" y="-303.5" font-family="sans" font-size="10.00">somatic_cna_civic_preprocess</text>
</g>
<!-- 7&#45;&gt;15 -->
<g id="edge24" class="edge">
<title>7&#45;&gt;15</title>
<path fill="none" stroke="grey" stroke-width="2" d="M274.19,-359.88C250.05,-350.22 219.72,-338.09 194.19,-327.88"/>
<polygon fill="grey" stroke="grey" stroke-width="2" points="195.26,-324.53 184.67,-324.07 192.66,-331.03 195.26,-324.53"/>
</g>
<!-- 7&#45;&gt;16 -->
<g id="edge27" class="edge">
<title>7&#45;&gt;16</title>
<path fill="none" stroke="grey" stroke-width="2" d="M361.25,-359.89C377.85,-351.42 395.47,-339.6 407,-324 455.89,-257.86 429.94,-223.77 450,-144 452.12,-135.56 454.51,-126.39 456.71,-118.09"/>
<polygon fill="grey" stroke="grey" stroke-width="2" points="460.16,-118.72 459.36,-108.16 453.4,-116.92 460.16,-118.72"/>
</g>
<!-- 8&#45;&gt;0 -->
<g id="edge8" class="edge">
<title>8&#45;&gt;0</title>
<path fill="none" stroke="grey" stroke-width="2" d="M673.02,-431.98C670.11,-405.36 665,-352.23 665,-307 665,-307 665,-307 665,-161 665,-118.5 661.03,-101.05 630,-72 594.63,-38.88 538.53,-26.45 501.49,-21.8"/>
<polygon fill="grey" stroke="grey" stroke-width="2" points="501.44,-18.27 491.11,-20.63 500.66,-25.22 501.44,-18.27"/>
</g>
<!-- 8&#45;&gt;16 -->
<g id="edge30" class="edge">
<title>8&#45;&gt;16</title>
<path fill="none" stroke="grey" stroke-width="2" d="M666.97,-431.92C662.18,-421.59 656.07,-408.11 651,-396 604.67,-285.29 631.59,-235.56 554,-144 542.93,-130.94 527.79,-120.3 513.08,-112.08"/>
<polygon fill="grey" stroke="grey" stroke-width="2" points="514.49,-108.87 504.02,-107.27 511.21,-115.05 514.49,-108.87"/>
</g>
<!-- 9 -->
<g id="node10" class="node">
<title>9</title>
<path fill="none" stroke="#8fd856" stroke-width="2" d="M729,-540C729,-540 699,-540 699,-540 693,-540 687,-534 687,-528 687,-528 687,-516 687,-516 687,-510 693,-504 699,-504 699,-504 729,-504 729,-504 735,-504 741,-510 741,-516 741,-516 741,-528 741,-528 741,-534 735,-540 729,-540"/>
<text text-anchor="middle" x="714" y="-519.5" font-family="sans" font-size="10.00">setup_r</text>
</g>
<!-- 9&#45;&gt;8 -->
<g id="edge16" class="edge">
<title>9&#45;&gt;8</title>
<path fill="none" stroke="grey" stroke-width="2" d="M704.36,-503.7C699.87,-495.64 694.44,-485.89 689.48,-476.98"/>
<polygon fill="grey" stroke="grey" stroke-width="2" points="692.45,-475.14 684.53,-468.1 686.34,-478.54 692.45,-475.14"/>
</g>
<!-- 10 -->
<g id="node11" class="node">
<title>10</title>
<path fill="none" stroke="#56d892" stroke-width="2" d="M385.5,-180C385.5,-180 276.5,-180 276.5,-180 270.5,-180 264.5,-174 264.5,-168 264.5,-168 264.5,-156 264.5,-156 264.5,-150 270.5,-144 276.5,-144 276.5,-144 385.5,-144 385.5,-144 391.5,-144 397.5,-150 397.5,-156 397.5,-156 397.5,-168 397.5,-168 397.5,-174 391.5,-180 385.5,-180"/>
<text text-anchor="middle" x="331" y="-159.5" font-family="sans" font-size="10.00">somatic_cna_oncokb_filter</text>
</g>
<!-- 10&#45;&gt;0 -->
<g id="edge5" class="edge">
<title>10&#45;&gt;0</title>
<path fill="none" stroke="grey" stroke-width="2" d="M347.04,-143.87C370.41,-118.92 413.94,-72.45 440.8,-43.77"/>
<polygon fill="grey" stroke="grey" stroke-width="2" points="443.62,-45.88 447.9,-36.19 438.51,-41.1 443.62,-45.88"/>
</g>
<!-- 10&#45;&gt;16 -->
<g id="edge28" class="edge">
<title>10&#45;&gt;16</title>
<path fill="none" stroke="grey" stroke-width="2" d="M363.54,-143.88C381.25,-134.55 403.35,-122.92 422.32,-112.94"/>
<polygon fill="grey" stroke="grey" stroke-width="2" points="424.12,-115.94 431.34,-108.19 420.86,-109.75 424.12,-115.94"/>
</g>
<!-- 11 -->
<g id="node12" class="node">
<title>11</title>
<path fill="none" stroke="#d8ac56" stroke-width="2" d="M366.5,-252C366.5,-252 281.5,-252 281.5,-252 275.5,-252 269.5,-246 269.5,-240 269.5,-240 269.5,-228 269.5,-228 269.5,-222 275.5,-216 281.5,-216 281.5,-216 366.5,-216 366.5,-216 372.5,-216 378.5,-222 378.5,-228 378.5,-228 378.5,-240 378.5,-240 378.5,-246 372.5,-252 366.5,-252"/>
<text text-anchor="middle" x="324" y="-231.5" font-family="sans" font-size="10.00">somatic_cna_oncokb</text>
</g>
<!-- 11&#45;&gt;10 -->
<g id="edge19" class="edge">
<title>11&#45;&gt;10</title>
<path fill="none" stroke="grey" stroke-width="2" d="M325.73,-215.7C326.5,-207.98 327.43,-198.71 328.29,-190.11"/>
<polygon fill="grey" stroke="grey" stroke-width="2" points="331.78,-190.4 329.29,-180.1 324.81,-189.71 331.78,-190.4"/>
</g>
<!-- 12&#45;&gt;11 -->
<g id="edge20" class="edge">
<title>12&#45;&gt;11</title>
<path fill="none" stroke="grey" stroke-width="2" d="M318.73,-287.7C319.5,-279.98 320.43,-270.71 321.29,-262.11"/>
<polygon fill="grey" stroke="grey" stroke-width="2" points="324.78,-262.4 322.29,-252.1 317.81,-261.71 324.78,-262.4"/>
</g>
<!-- 13 -->
<g id="node14" class="node">
<title>13</title>
<path fill="none" stroke="#d8cb56" stroke-width="2" d="M234,-180C234,-180 136,-180 136,-180 130,-180 124,-174 124,-168 124,-168 124,-156 124,-156 124,-150 130,-144 136,-144 136,-144 234,-144 234,-144 240,-144 246,-150 246,-156 246,-156 246,-168 246,-168 246,-174 240,-180 234,-180"/>
<text text-anchor="middle" x="185" y="-159.5" font-family="sans" font-size="10.00">somatic_cna_civic_filter</text>
</g>
<!-- 13&#45;&gt;0 -->
<g id="edge2" class="edge">
<title>13&#45;&gt;0</title>
<path fill="none" stroke="grey" stroke-width="2" d="M218.65,-143.87C271.54,-116.96 373.66,-64.98 427.97,-37.34"/>
<polygon fill="grey" stroke="grey" stroke-width="2" points="429.58,-40.45 436.9,-32.79 426.4,-34.21 429.58,-40.45"/>
</g>
<!-- 13&#45;&gt;16 -->
<g id="edge26" class="edge">
<title>13&#45;&gt;16</title>
<path fill="none" stroke="grey" stroke-width="2" d="M246.23,-145.64C296.44,-133.04 366.66,-115.42 413.65,-103.63"/>
<polygon fill="grey" stroke="grey" stroke-width="2" points="414.75,-106.96 423.6,-101.14 413.05,-100.18 414.75,-106.96"/>
</g>
<!-- 14 -->
<g id="node15" class="node">
<title>14</title>
<path fill="none" stroke="#d85656" stroke-width="2" d="M200,-252C200,-252 126,-252 126,-252 120,-252 114,-246 114,-240 114,-240 114,-228 114,-228 114,-222 120,-216 126,-216 126,-216 200,-216 200,-216 206,-216 212,-222 212,-228 212,-228 212,-240 212,-240 212,-246 206,-252 200,-252"/>
<text text-anchor="middle" x="163" y="-231.5" font-family="sans" font-size="10.00">somatic_cna_civic</text>
</g>
<!-- 14&#45;&gt;13 -->
<g id="edge22" class="edge">
<title>14&#45;&gt;13</title>
<path fill="none" stroke="grey" stroke-width="2" d="M168.44,-215.7C170.89,-207.9 173.84,-198.51 176.57,-189.83"/>
<polygon fill="grey" stroke="grey" stroke-width="2" points="179.96,-190.69 179.62,-180.1 173.29,-188.59 179.96,-190.69"/>
</g>
<!-- 15&#45;&gt;14 -->
<g id="edge23" class="edge">
<title>15&#45;&gt;14</title>
<path fill="none" stroke="grey" stroke-width="2" d="M147.19,-287.7C149.53,-279.9 152.35,-270.51 154.95,-261.83"/>
<polygon fill="grey" stroke="grey" stroke-width="2" points="158.35,-262.69 157.87,-252.1 151.64,-260.68 158.35,-262.69"/>
</g>
<!-- 16&#45;&gt;0 -->
<g id="edge7" class="edge">
<title>16&#45;&gt;0</title>
<path fill="none" stroke="grey" stroke-width="2" d="M464,-71.7C464,-63.98 464,-54.71 464,-46.11"/>
<polygon fill="grey" stroke="grey" stroke-width="2" points="467.5,-46.1 464,-36.1 460.5,-46.1 467.5,-46.1"/>
</g>
<!-- 17&#45;&gt;0 -->
<g id="edge3" class="edge">
<title>17&#45;&gt;0</title>
<path fill="none" stroke="grey" stroke-width="2" d="M739.96,-359.57C735.58,-332.86 728,-280.12 728,-235 728,-235 728,-235 728,-161 728,-115.85 714.82,-99.49 679,-72 626.52,-31.72 547.44,-21.64 501.23,-19.37"/>
<polygon fill="grey" stroke="grey" stroke-width="2" points="501.19,-15.86 491.06,-18.97 500.92,-22.86 501.19,-15.86"/>
</g>
</g>
</svg>
