<?xml version="1.0" encoding="UTF-8" standalone="no"?>
<!DOCTYPE svg PUBLIC "-//W3C//DTD SVG 1.1//EN"
 "http://www.w3.org/Graphics/SVG/1.1/DTD/svg11.dtd">
<!-- Generated by graphviz version 2.49.0 (20210829.0051)
 -->
<!-- Title: snakemake_dag Pages: 1 -->
<svg width="537pt" height="548pt"
 viewBox="0.00 0.00 537.00 548.00" xmlns="http://www.w3.org/2000/svg" xmlns:xlink="http://www.w3.org/1999/xlink">
<g id="graph0" class="graph" transform="scale(1 1) rotate(0) translate(4 544)">
<title>snakemake_dag</title>
<polygon fill="white" stroke="transparent" points="-4,4 -4,-544 533,-544 533,4 -4,4"/>
<!-- 0 -->
<g id="node1" class="node">
<title>0</title>
<path fill="none" stroke="#56d892" stroke-width="2" d="M129,-36C129,-36 99,-36 99,-36 93,-36 87,-30 87,-24 87,-24 87,-12 87,-12 87,-6 93,0 99,0 99,0 129,0 129,0 135,0 141,-6 141,-12 141,-12 141,-24 141,-24 141,-30 135,-36 129,-36"/>
<text text-anchor="middle" x="114" y="-15.5" font-family="sans" font-size="10.00">all</text>
</g>
<!-- 1 -->
<g id="node2" class="node">
<title>1</title>
<path fill="none" stroke="#d8a456" stroke-width="2" d="M199,-540C199,-540 35,-540 35,-540 29,-540 23,-534 23,-528 23,-528 23,-516 23,-516 23,-510 29,-504 35,-504 35,-504 199,-504 199,-504 205,-504 211,-510 211,-516 211,-516 211,-528 211,-528 211,-534 205,-540 199,-540"/>
<text text-anchor="middle" x="117" y="-519.5" font-family="sans" font-size="10.00">somatic_cnv_facets_tumor_normal</text>
</g>
<!-- 1&#45;&gt;0 -->
<g id="edge2" class="edge">
<title>1&#45;&gt;0</title>
<path fill="none" stroke="grey" stroke-width="2" d="M88.98,-503.94C54.36,-480.47 0,-434.74 0,-379 0,-379 0,-379 0,-161 0,-110 45.27,-66.88 78.76,-41.97"/>
<polygon fill="grey" stroke="grey" stroke-width="2" points="80.92,-44.73 86.98,-36.04 76.83,-39.05 80.92,-44.73"/>
</g>
<!-- 2 -->
<g id="node3" class="node">
<title>2</title>
<path fill="none" stroke="#56d8b9" stroke-width="2" d="M159,-468C159,-468 75,-468 75,-468 69,-468 63,-462 63,-456 63,-456 63,-444 63,-444 63,-438 69,-432 75,-432 75,-432 159,-432 159,-432 165,-432 171,-438 171,-444 171,-444 171,-456 171,-456 171,-462 165,-468 159,-468"/>
<text text-anchor="middle" x="117" y="-447.5" font-family="sans" font-size="10.00">somatic_cnv_table</text>
</g>
<!-- 1&#45;&gt;2 -->
<g id="edge8" class="edge">
<title>1&#45;&gt;2</title>
<path fill="none" stroke="grey" stroke-width="2" d="M117,-503.7C117,-495.98 117,-486.71 117,-478.11"/>
<polygon fill="grey" stroke="grey" stroke-width="2" points="120.5,-478.1 117,-468.1 113.5,-478.1 120.5,-478.1"/>
</g>
<!-- 5 -->
<g id="node6" class="node">
<title>5</title>
<path fill="none" stroke="#567bd8" stroke-width="2" d="M322.5,-396C322.5,-396 197.5,-396 197.5,-396 191.5,-396 185.5,-390 185.5,-384 185.5,-384 185.5,-372 185.5,-372 185.5,-366 191.5,-360 197.5,-360 197.5,-360 322.5,-360 322.5,-360 328.5,-360 334.5,-366 334.5,-372 334.5,-372 334.5,-384 334.5,-384 334.5,-390 328.5,-396 322.5,-396"/>
<text text-anchor="middle" x="260" y="-375.5" font-family="sans" font-size="10.00">somatic_cnv_chr_arm_sum</text>
</g>
<!-- 1&#45;&gt;5 -->
<g id="edge11" class="edge">
<title>1&#45;&gt;5</title>
<path fill="none" stroke="grey" stroke-width="2" d="M138.93,-503.81C151.35,-493.77 166.96,-480.62 180,-468 201.23,-447.45 223.56,-422.27 239.22,-403.94"/>
<polygon fill="grey" stroke="grey" stroke-width="2" points="242.12,-405.93 245.92,-396.04 236.78,-401.4 242.12,-405.93"/>
</g>
<!-- 2&#45;&gt;0 -->
<g id="edge4" class="edge">
<title>2&#45;&gt;0</title>
<path fill="none" stroke="grey" stroke-width="2" d="M91.01,-431.98C78.9,-422.74 65.34,-410.28 57,-396 36.59,-361.08 38,-347.45 38,-307 38,-307 38,-307 38,-161 38,-115.64 68.52,-70.75 90.88,-43.95"/>
<polygon fill="grey" stroke="grey" stroke-width="2" points="93.64,-46.09 97.51,-36.23 88.34,-41.53 93.64,-46.09"/>
</g>
<!-- 3 -->
<g id="node4" class="node">
<title>3</title>
<path fill="none" stroke="#b6d856" stroke-width="2" d="M155.5,-396C155.5,-396 78.5,-396 78.5,-396 72.5,-396 66.5,-390 66.5,-384 66.5,-384 66.5,-372 66.5,-372 66.5,-366 72.5,-360 78.5,-360 78.5,-360 155.5,-360 155.5,-360 161.5,-360 167.5,-366 167.5,-372 167.5,-372 167.5,-384 167.5,-384 167.5,-390 161.5,-396 155.5,-396"/>
<text text-anchor="middle" x="117" y="-375.5" font-family="sans" font-size="10.00">somatic_cnv_bed</text>
</g>
<!-- 2&#45;&gt;3 -->
<g id="edge9" class="edge">
<title>2&#45;&gt;3</title>
<path fill="none" stroke="grey" stroke-width="2" d="M117,-431.7C117,-423.98 117,-414.71 117,-406.11"/>
<polygon fill="grey" stroke="grey" stroke-width="2" points="120.5,-406.1 117,-396.1 113.5,-406.1 120.5,-406.1"/>
</g>
<!-- 2&#45;&gt;5 -->
<g id="edge13" class="edge">
<title>2&#45;&gt;5</title>
<path fill="none" stroke="grey" stroke-width="2" d="M151.98,-431.88C171.2,-422.47 195.23,-410.71 215.74,-400.67"/>
<polygon fill="grey" stroke="grey" stroke-width="2" points="217.44,-403.73 224.88,-396.19 214.36,-397.44 217.44,-403.73"/>
</g>
<!-- 3&#45;&gt;0 -->
<g id="edge3" class="edge">
<title>3&#45;&gt;0</title>
<path fill="none" stroke="grey" stroke-width="2" d="M108.7,-359.97C96.72,-333.77 76,-281.7 76,-235 76,-235 76,-235 76,-161 76,-119.63 91.23,-73.72 102.41,-45.61"/>
<polygon fill="grey" stroke="grey" stroke-width="2" points="105.76,-46.67 106.31,-36.09 99.28,-44.02 105.76,-46.67"/>
</g>
<!-- 4 -->
<g id="node5" class="node">
<title>4</title>
<path fill="none" stroke="#d85656" stroke-width="2" d="M235,-324C235,-324 153,-324 153,-324 147,-324 141,-318 141,-312 141,-312 141,-300 141,-300 141,-294 147,-288 153,-288 153,-288 235,-288 235,-288 241,-288 247,-294 247,-300 247,-300 247,-312 247,-312 247,-318 241,-324 235,-324"/>
<text text-anchor="middle" x="194" y="-303.5" font-family="sans" font-size="10.00">somatic_cnv_calls</text>
</g>
<!-- 3&#45;&gt;4 -->
<g id="edge10" class="edge">
<title>3&#45;&gt;4</title>
<path fill="none" stroke="grey" stroke-width="2" d="M136.03,-359.7C145.54,-351.05 157.21,-340.45 167.57,-331.03"/>
<polygon fill="grey" stroke="grey" stroke-width="2" points="170.14,-333.42 175.19,-324.1 165.43,-328.24 170.14,-333.42"/>
</g>
<!-- 4&#45;&gt;0 -->
<g id="edge1" class="edge">
<title>4&#45;&gt;0</title>
<path fill="none" stroke="grey" stroke-width="2" d="M165.82,-287.81C153.56,-278.76 140.35,-266.52 133,-252 98.82,-184.44 104.36,-91.62 109.89,-46.23"/>
<polygon fill="grey" stroke="grey" stroke-width="2" points="113.37,-46.63 111.2,-36.26 106.43,-45.72 113.37,-46.63"/>
</g>
<!-- 9 -->
<g id="node10" class="node">
<title>9</title>
<path fill="none" stroke="#56d86b" stroke-width="2" d="M306.5,-252C306.5,-252 153.5,-252 153.5,-252 147.5,-252 141.5,-246 141.5,-240 141.5,-240 141.5,-228 141.5,-228 141.5,-222 147.5,-216 153.5,-216 153.5,-216 306.5,-216 306.5,-216 312.5,-216 318.5,-222 318.5,-228 318.5,-228 318.5,-240 318.5,-240 318.5,-246 312.5,-252 306.5,-252"/>
<text text-anchor="middle" x="230" y="-231.5" font-family="sans" font-size="10.00">somatic_cna_oncokb_preprocess</text>
</g>
<!-- 4&#45;&gt;9 -->
<g id="edge16" class="edge">
<title>4&#45;&gt;9</title>
<path fill="none" stroke="grey" stroke-width="2" d="M202.9,-287.7C207,-279.73 211.95,-270.1 216.49,-261.26"/>
<polygon fill="grey" stroke="grey" stroke-width="2" points="219.74,-262.6 221.2,-252.1 213.52,-259.4 219.74,-262.6"/>
</g>
<!-- 12 -->
<g id="node13" class="node">
<title>12</title>
<path fill="none" stroke="#68d856" stroke-width="2" d="M489,-252C489,-252 349,-252 349,-252 343,-252 337,-246 337,-240 337,-240 337,-228 337,-228 337,-222 343,-216 349,-216 349,-216 489,-216 489,-216 495,-216 501,-222 501,-228 501,-228 501,-240 501,-240 501,-246 495,-252 489,-252"/>
<text text-anchor="middle" x="419" y="-231.5" font-family="sans" font-size="10.00">somatic_cna_civic_preprocess</text>
</g>
<!-- 4&#45;&gt;12 -->
<g id="edge19" class="edge">
<title>4&#45;&gt;12</title>
<path fill="none" stroke="grey" stroke-width="2" d="M247.04,-288.5C279.08,-278.53 320.16,-265.75 354.13,-255.18"/>
<polygon fill="grey" stroke="grey" stroke-width="2" points="355.46,-258.43 363.97,-252.12 353.38,-251.75 355.46,-258.43"/>
</g>
<!-- 5&#45;&gt;0 -->
<g id="edge7" class="edge">
<title>5&#45;&gt;0</title>
<path fill="none" stroke="grey" stroke-width="2" d="M334.57,-369.48C414.18,-356.85 529,-323.32 529,-235 529,-235 529,-235 529,-161 529,-112.28 506.57,-97.41 465,-72 412.79,-40.09 230.37,-25.79 151.17,-20.99"/>
<polygon fill="grey" stroke="grey" stroke-width="2" points="151.34,-17.49 141.15,-20.4 150.92,-24.48 151.34,-17.49"/>
</g>
<!-- 6 -->
<g id="node7" class="node">
<title>6</title>
<path fill="none" stroke="#8fd856" stroke-width="2" d="M275,-468C275,-468 245,-468 245,-468 239,-468 233,-462 233,-456 233,-456 233,-444 233,-444 233,-438 239,-432 245,-432 245,-432 275,-432 275,-432 281,-432 287,-438 287,-444 287,-444 287,-456 287,-456 287,-462 281,-468 275,-468"/>
<text text-anchor="middle" x="260" y="-447.5" font-family="sans" font-size="10.00">setup_r</text>
</g>
<!-- 6&#45;&gt;5 -->
<g id="edge12" class="edge">
<title>6&#45;&gt;5</title>
<path fill="none" stroke="grey" stroke-width="2" d="M260,-431.7C260,-423.98 260,-414.71 260,-406.11"/>
<polygon fill="grey" stroke="grey" stroke-width="2" points="263.5,-406.1 260,-396.1 256.5,-406.1 263.5,-406.1"/>
</g>
<!-- 7 -->
<g id="node8" class="node">
<title>7</title>
<path fill="none" stroke="#56a9d8" stroke-width="2" d="M280,-108C280,-108 158,-108 158,-108 152,-108 146,-102 146,-96 146,-96 146,-84 146,-84 146,-78 152,-72 158,-72 158,-72 280,-72 280,-72 286,-72 292,-78 292,-84 292,-84 292,-96 292,-96 292,-102 286,-108 280,-108"/>
<text text-anchor="middle" x="219" y="-87.5" font-family="sans" font-size="10.00">somatic_cna_oncokb_filter</text>
</g>
<!-- 7&#45;&gt;0 -->
<g id="edge6" class="edge">
<title>7&#45;&gt;0</title>
<path fill="none" stroke="grey" stroke-width="2" d="M193.31,-71.88C179.71,-62.81 162.83,-51.55 148.14,-41.76"/>
<polygon fill="grey" stroke="grey" stroke-width="2" points="150.05,-38.82 139.78,-36.19 146.16,-44.65 150.05,-38.82"/>
</g>
<!-- 8 -->
<g id="node9" class="node">
<title>8</title>
<path fill="none" stroke="#d87d56" stroke-width="2" d="M270.5,-180C270.5,-180 175.5,-180 175.5,-180 169.5,-180 163.5,-174 163.5,-168 163.5,-168 163.5,-156 163.5,-156 163.5,-150 169.5,-144 175.5,-144 175.5,-144 270.5,-144 270.5,-144 276.5,-144 282.5,-150 282.5,-156 282.5,-156 282.5,-168 282.5,-168 282.5,-174 276.5,-180 270.5,-180"/>
<text text-anchor="middle" x="223" y="-159.5" font-family="sans" font-size="10.00">somatic_cna_oncokb</text>
</g>
<!-- 8&#45;&gt;7 -->
<g id="edge14" class="edge">
<title>8&#45;&gt;7</title>
<path fill="none" stroke="grey" stroke-width="2" d="M222.01,-143.7C221.57,-135.98 221.04,-126.71 220.55,-118.11"/>
<polygon fill="grey" stroke="grey" stroke-width="2" points="224.04,-117.89 219.98,-108.1 217.05,-118.29 224.04,-117.89"/>
</g>
<!-- 9&#45;&gt;8 -->
<g id="edge15" class="edge">
<title>9&#45;&gt;8</title>
<path fill="none" stroke="grey" stroke-width="2" d="M228.27,-215.7C227.5,-207.98 226.57,-198.71 225.71,-190.11"/>
<polygon fill="grey" stroke="grey" stroke-width="2" points="229.19,-189.71 224.71,-180.1 222.22,-190.4 229.19,-189.71"/>
</g>
<!-- 10 -->
<g id="node11" class="node">
<title>10</title>
<path fill="none" stroke="#56d0d8" stroke-width="2" d="M444,-108C444,-108 334,-108 334,-108 328,-108 322,-102 322,-96 322,-96 322,-84 322,-84 322,-78 328,-72 334,-72 334,-72 444,-72 444,-72 450,-72 456,-78 456,-84 456,-84 456,-96 456,-96 456,-102 450,-108 444,-108"/>
<text text-anchor="middle" x="389" y="-87.5" font-family="sans" font-size="10.00">somatic_cna_civic_filter</text>
</g>
<!-- 10&#45;&gt;0 -->
<g id="edge5" class="edge">
<title>10&#45;&gt;0</title>
<path fill="none" stroke="grey" stroke-width="2" d="M322.08,-71.97C268.36,-58.29 194.91,-39.6 151.18,-28.46"/>
<polygon fill="grey" stroke="grey" stroke-width="2" points="151.81,-25.01 141.26,-25.94 150.08,-31.8 151.81,-25.01"/>
</g>
<!-- 11 -->
<g id="node12" class="node">
<title>11</title>
<path fill="none" stroke="#d8cb56" stroke-width="2" d="M441,-180C441,-180 359,-180 359,-180 353,-180 347,-174 347,-168 347,-168 347,-156 347,-156 347,-150 353,-144 359,-144 359,-144 441,-144 441,-144 447,-144 453,-150 453,-156 453,-156 453,-168 453,-168 453,-174 447,-180 441,-180"/>
<text text-anchor="middle" x="400" y="-159.5" font-family="sans" font-size="10.00">somatic_cna_civic</text>
</g>
<!-- 11&#45;&gt;10 -->
<g id="edge17" class="edge">
<title>11&#45;&gt;10</title>
<path fill="none" stroke="grey" stroke-width="2" d="M397.28,-143.7C396.07,-135.98 394.61,-126.71 393.26,-118.11"/>
<polygon fill="grey" stroke="grey" stroke-width="2" points="396.7,-117.44 391.69,-108.1 389.78,-118.53 396.7,-117.44"/>
</g>
<!-- 12&#45;&gt;11 -->
<g id="edge18" class="edge">
<title>12&#45;&gt;11</title>
<path fill="none" stroke="grey" stroke-width="2" d="M414.3,-215.7C412.19,-207.9 409.64,-198.51 407.28,-189.83"/>
<polygon fill="grey" stroke="grey" stroke-width="2" points="410.64,-188.84 404.64,-180.1 403.88,-190.67 410.64,-188.84"/>
</g>
</g>
</svg>
