<?xml version="1.0" encoding="UTF-8" standalone="no"?>
<!DOCTYPE svg PUBLIC "-//W3C//DTD SVG 1.1//EN"
 "http://www.w3.org/Graphics/SVG/1.1/DTD/svg11.dtd">
<!-- Generated by graphviz version 2.49.0 (20210829.0051)
 -->
<!-- Title: snakemake_dag Pages: 1 -->
<svg width="667pt" height="620pt"
 viewBox="0.00 0.00 666.50 620.00" xmlns="http://www.w3.org/2000/svg" xmlns:xlink="http://www.w3.org/1999/xlink">
<g id="graph0" class="graph" transform="scale(1 1) rotate(0) translate(4 616)">
<title>snakemake_dag</title>
<polygon fill="white" stroke="transparent" points="-4,4 -4,-616 662.5,-616 662.5,4 -4,4"/>
<!-- 0 -->
<g id="node1" class="node">
<title>0</title>
<path fill="none" stroke="#56a2d8" stroke-width="2" d="M305.5,-36C305.5,-36 275.5,-36 275.5,-36 269.5,-36 263.5,-30 263.5,-24 263.5,-24 263.5,-12 263.5,-12 263.5,-6 269.5,0 275.5,0 275.5,0 305.5,0 305.5,0 311.5,0 317.5,-6 317.5,-12 317.5,-12 317.5,-24 317.5,-24 317.5,-30 311.5,-36 305.5,-36"/>
<text text-anchor="middle" x="290.5" y="-15.5" font-family="sans" font-size="10.00">all</text>
</g>
<!-- 1 -->
<g id="node2" class="node">
<title>1</title>
<path fill="none" stroke="#d85656" stroke-width="2" d="M79,-612C79,-612 12,-612 12,-612 6,-612 0,-606 0,-600 0,-600 0,-588 0,-588 0,-582 6,-576 12,-576 12,-576 79,-576 79,-576 85,-576 91,-582 91,-588 91,-588 91,-600 91,-600 91,-606 85,-612 79,-612"/>
<text text-anchor="middle" x="45.5" y="-591.5" font-family="sans" font-size="10.00">download_bam</text>
</g>
<!-- 1&#45;&gt;0 -->
<g id="edge2" class="edge">
<title>1&#45;&gt;0</title>
<path fill="none" stroke="grey" stroke-width="2" d="M36.18,-575.63C23,-549.41 0.5,-497.81 0.5,-451 0.5,-451 0.5,-451 0.5,-161 0.5,-115.19 15.5,-99.01 52.5,-72 112.83,-27.96 203.06,-19.45 253.31,-18.42"/>
<polygon fill="grey" stroke="grey" stroke-width="2" points="253.45,-21.91 263.41,-18.3 253.37,-14.91 253.45,-21.91"/>
</g>
<!-- 4 -->
<g id="node5" class="node">
<title>4</title>
<path fill="none" stroke="#56d8c9" stroke-width="2" d="M164.5,-540C164.5,-540 98.5,-540 98.5,-540 92.5,-540 86.5,-534 86.5,-528 86.5,-528 86.5,-516 86.5,-516 86.5,-510 92.5,-504 98.5,-504 98.5,-504 164.5,-504 164.5,-504 170.5,-504 176.5,-510 176.5,-516 176.5,-516 176.5,-528 176.5,-528 176.5,-534 170.5,-540 164.5,-540"/>
<text text-anchor="middle" x="131.5" y="-519.5" font-family="sans" font-size="10.00">get_snp_pileup</text>
</g>
<!-- 1&#45;&gt;4 -->
<g id="edge13" class="edge">
<title>1&#45;&gt;4</title>
<path fill="none" stroke="grey" stroke-width="2" d="M66.76,-575.7C77.59,-566.88 90.92,-556.03 102.66,-546.47"/>
<polygon fill="grey" stroke="grey" stroke-width="2" points="104.94,-549.13 110.49,-540.1 100.52,-543.7 104.94,-549.13"/>
</g>
<!-- 2 -->
<g id="node3" class="node">
<title>2</title>
<path fill="none" stroke="#59d856" stroke-width="2" d="M140.5,-324C140.5,-324 78.5,-324 78.5,-324 72.5,-324 66.5,-318 66.5,-312 66.5,-312 66.5,-300 66.5,-300 66.5,-294 72.5,-288 78.5,-288 78.5,-288 140.5,-288 140.5,-288 146.5,-288 152.5,-294 152.5,-300 152.5,-300 152.5,-312 152.5,-312 152.5,-318 146.5,-324 140.5,-324"/>
<text text-anchor="middle" x="109.5" y="-303.5" font-family="sans" font-size="10.00">remove_bams</text>
</g>
<!-- 2&#45;&gt;0 -->
<g id="edge6" class="edge">
<title>2&#45;&gt;0</title>
<path fill="none" stroke="grey" stroke-width="2" d="M105.72,-287.7C97.41,-244.53 82.68,-131.27 141.5,-72 171.43,-41.84 219.62,-28.78 253.06,-23.16"/>
<polygon fill="grey" stroke="grey" stroke-width="2" points="254,-26.56 263.36,-21.59 252.94,-19.64 254,-26.56"/>
</g>
<!-- 3 -->
<g id="node4" class="node">
<title>3</title>
<path fill="none" stroke="#56d8a2" stroke-width="2" d="M262.5,-468C262.5,-468 98.5,-468 98.5,-468 92.5,-468 86.5,-462 86.5,-456 86.5,-456 86.5,-444 86.5,-444 86.5,-438 92.5,-432 98.5,-432 98.5,-432 262.5,-432 262.5,-432 268.5,-432 274.5,-438 274.5,-444 274.5,-444 274.5,-456 274.5,-456 274.5,-462 268.5,-468 262.5,-468"/>
<text text-anchor="middle" x="180.5" y="-447.5" font-family="sans" font-size="10.00">somatic_cnv_facets_tumor_normal</text>
</g>
<!-- 3&#45;&gt;0 -->
<g id="edge8" class="edge">
<title>3&#45;&gt;0</title>
<path fill="none" stroke="grey" stroke-width="2" d="M143.56,-431.95C101.49,-409.69 38.5,-366.44 38.5,-307 38.5,-307 38.5,-307 38.5,-161 38.5,-63.8 182.57,-32.4 252.84,-22.87"/>
<polygon fill="grey" stroke="grey" stroke-width="2" points="253.57,-26.31 263.05,-21.57 252.69,-19.37 253.57,-26.31"/>
</g>
<!-- 3&#45;&gt;2 -->
<g id="edge10" class="edge">
<title>3&#45;&gt;2</title>
<path fill="none" stroke="grey" stroke-width="2" d="M171.94,-431.87C159.68,-407.35 137.02,-362.03 122.63,-333.26"/>
<polygon fill="grey" stroke="grey" stroke-width="2" points="125.7,-331.57 118.09,-324.19 119.44,-334.7 125.7,-331.57"/>
</g>
<!-- 6 -->
<g id="node7" class="node">
<title>6</title>
<path fill="none" stroke="#d8c356" stroke-width="2" d="M404,-396C404,-396 287,-396 287,-396 281,-396 275,-390 275,-384 275,-384 275,-372 275,-372 275,-366 281,-360 287,-360 287,-360 404,-360 404,-360 410,-360 416,-366 416,-372 416,-372 416,-384 416,-384 416,-390 410,-396 404,-396"/>
<text text-anchor="middle" x="345.5" y="-375.5" font-family="sans" font-size="10.00">somatic_cnv_process_vcf</text>
</g>
<!-- 3&#45;&gt;6 -->
<g id="edge15" class="edge">
<title>3&#45;&gt;6</title>
<path fill="none" stroke="grey" stroke-width="2" d="M220.86,-431.88C243.52,-422.26 271.97,-410.19 295.97,-400.01"/>
<polygon fill="grey" stroke="grey" stroke-width="2" points="297.43,-403.2 305.27,-396.07 294.69,-396.75 297.43,-403.2"/>
</g>
<!-- 11 -->
<g id="node12" class="node">
<title>11</title>
<path fill="none" stroke="#c6d856" stroke-width="2" d="M250.5,-108C250.5,-108 162.5,-108 162.5,-108 156.5,-108 150.5,-102 150.5,-96 150.5,-96 150.5,-84 150.5,-84 150.5,-78 156.5,-72 162.5,-72 162.5,-72 250.5,-72 250.5,-72 256.5,-72 262.5,-78 262.5,-84 262.5,-84 262.5,-96 262.5,-96 262.5,-102 256.5,-108 250.5,-108"/>
<text text-anchor="middle" x="206.5" y="-87.5" font-family="sans" font-size="10.00">upload_pair_results</text>
</g>
<!-- 3&#45;&gt;11 -->
<g id="edge24" class="edge">
<title>3&#45;&gt;11</title>
<path fill="none" stroke="grey" stroke-width="2" d="M181.34,-431.78C183.68,-385.3 190.73,-253.41 200.5,-144 201.25,-135.57 202.23,-126.4 203.18,-118.1"/>
<polygon fill="grey" stroke="grey" stroke-width="2" points="206.66,-118.5 204.35,-108.16 199.71,-117.69 206.66,-118.5"/>
</g>
<!-- 12 -->
<g id="node13" class="node">
<title>12</title>
<path fill="none" stroke="#78d856" stroke-width="2" d="M493,-108C493,-108 426,-108 426,-108 420,-108 414,-102 414,-96 414,-96 414,-84 414,-84 414,-78 420,-72 426,-72 426,-72 493,-72 493,-72 499,-72 505,-78 505,-84 505,-84 505,-96 505,-96 505,-102 499,-108 493,-108"/>
<text text-anchor="middle" x="459.5" y="-87.5" font-family="sans" font-size="10.00">upload_vm_log</text>
</g>
<!-- 3&#45;&gt;12 -->
<g id="edge29" class="edge">
<title>3&#45;&gt;12</title>
<path fill="none" stroke="grey" stroke-width="2" d="M187.84,-431.9C203.15,-398.46 241.82,-324.47 298.5,-288 364.55,-245.5 415.59,-307.16 471.5,-252 506.04,-217.92 499.18,-191.1 487.5,-144 485.21,-134.75 480.97,-125.34 476.48,-117.07"/>
<polygon fill="grey" stroke="grey" stroke-width="2" points="479.43,-115.17 471.39,-108.28 473.37,-118.68 479.43,-115.17"/>
</g>
<!-- 4&#45;&gt;3 -->
<g id="edge11" class="edge">
<title>4&#45;&gt;3</title>
<path fill="none" stroke="grey" stroke-width="2" d="M143.61,-503.7C149.37,-495.47 156.36,-485.48 162.71,-476.42"/>
<polygon fill="grey" stroke="grey" stroke-width="2" points="165.66,-478.3 168.53,-468.1 159.92,-474.29 165.66,-478.3"/>
</g>
<!-- 5 -->
<g id="node6" class="node">
<title>5</title>
<path fill="none" stroke="#56c9d8" stroke-width="2" d="M244.5,-540C244.5,-540 214.5,-540 214.5,-540 208.5,-540 202.5,-534 202.5,-528 202.5,-528 202.5,-516 202.5,-516 202.5,-510 208.5,-504 214.5,-504 214.5,-504 244.5,-504 244.5,-504 250.5,-504 256.5,-510 256.5,-516 256.5,-516 256.5,-528 256.5,-528 256.5,-534 250.5,-540 244.5,-540"/>
<text text-anchor="middle" x="229.5" y="-519.5" font-family="sans" font-size="10.00">setup_r</text>
</g>
<!-- 5&#45;&gt;3 -->
<g id="edge12" class="edge">
<title>5&#45;&gt;3</title>
<path fill="none" stroke="grey" stroke-width="2" d="M217.39,-503.7C211.63,-495.47 204.64,-485.48 198.29,-476.42"/>
<polygon fill="grey" stroke="grey" stroke-width="2" points="201.08,-474.29 192.47,-468.1 195.34,-478.3 201.08,-474.29"/>
</g>
<!-- 5&#45;&gt;6 -->
<g id="edge14" class="edge">
<title>5&#45;&gt;6</title>
<path fill="none" stroke="grey" stroke-width="2" d="M248.61,-503.9C259.36,-493.89 272.73,-480.74 283.5,-468 300.55,-447.82 317.54,-423.03 329.4,-404.74"/>
<polygon fill="grey" stroke="grey" stroke-width="2" points="332.5,-406.39 334.96,-396.08 326.61,-402.61 332.5,-406.39"/>
</g>
<!-- 6&#45;&gt;0 -->
<g id="edge4" class="edge">
<title>6&#45;&gt;0</title>
<path fill="none" stroke="grey" stroke-width="2" d="M416.13,-374.98C508.45,-368.15 658.5,-340.77 658.5,-235 658.5,-235 658.5,-235 658.5,-161 658.5,-94.6 599.01,-99.34 538.5,-72 468.08,-40.18 377.65,-27.08 327.74,-21.99"/>
<polygon fill="grey" stroke="grey" stroke-width="2" points="328.02,-18.5 317.73,-21.02 327.35,-25.47 328.02,-18.5"/>
</g>
<!-- 7 -->
<g id="node8" class="node">
<title>7</title>
<path fill="none" stroke="#d87d56" stroke-width="2" d="M430,-324C430,-324 319,-324 319,-324 313,-324 307,-318 307,-312 307,-312 307,-300 307,-300 307,-294 313,-288 319,-288 319,-288 430,-288 430,-288 436,-288 442,-294 442,-300 442,-300 442,-312 442,-312 442,-318 436,-324 430,-324"/>
<text text-anchor="middle" x="374.5" y="-303.5" font-family="sans" font-size="10.00">somatic_cnv_gene_calls</text>
</g>
<!-- 6&#45;&gt;7 -->
<g id="edge16" class="edge">
<title>6&#45;&gt;7</title>
<path fill="none" stroke="grey" stroke-width="2" d="M352.67,-359.7C355.93,-351.81 359.87,-342.3 363.5,-333.55"/>
<polygon fill="grey" stroke="grey" stroke-width="2" points="366.82,-334.68 367.41,-324.1 360.35,-332 366.82,-334.68"/>
</g>
<!-- 6&#45;&gt;11 -->
<g id="edge22" class="edge">
<title>6&#45;&gt;11</title>
<path fill="none" stroke="grey" stroke-width="2" d="M326.39,-359.85C293.07,-328.3 226.29,-257.16 209.5,-180 205.09,-159.73 204.48,-136.27 204.9,-118.52"/>
<polygon fill="grey" stroke="grey" stroke-width="2" points="208.4,-118.41 205.26,-108.29 201.41,-118.16 208.4,-118.41"/>
</g>
<!-- 6&#45;&gt;12 -->
<g id="edge27" class="edge">
<title>6&#45;&gt;12</title>
<path fill="none" stroke="grey" stroke-width="2" d="M395.51,-359.95C441.08,-341.37 505.43,-306.76 533.5,-252 555.44,-209.19 563.38,-186.31 540.5,-144 533.68,-131.39 522.41,-121.3 510.42,-113.45"/>
<polygon fill="grey" stroke="grey" stroke-width="2" points="511.98,-110.3 501.61,-108.13 508.36,-116.29 511.98,-110.3"/>
</g>
<!-- 7&#45;&gt;0 -->
<g id="edge1" class="edge">
<title>7&#45;&gt;0</title>
<path fill="none" stroke="grey" stroke-width="2" d="M442.21,-299.3C474.83,-292.88 511.55,-279.53 533.5,-252 563.48,-214.39 548.79,-191.38 540.5,-144 534.63,-110.49 539.89,-94.65 514.5,-72 487.12,-47.59 383.83,-30.93 327.57,-23.46"/>
<polygon fill="grey" stroke="grey" stroke-width="2" points="328.01,-19.99 317.64,-22.18 327.11,-26.93 328.01,-19.99"/>
</g>
<!-- 9 -->
<g id="node10" class="node">
<title>9</title>
<path fill="none" stroke="#567bd8" stroke-width="2" d="M450,-252C450,-252 299,-252 299,-252 293,-252 287,-246 287,-240 287,-240 287,-228 287,-228 287,-222 293,-216 299,-216 299,-216 450,-216 450,-216 456,-216 462,-222 462,-228 462,-228 462,-240 462,-240 462,-246 456,-252 450,-252"/>
<text text-anchor="middle" x="374.5" y="-231.5" font-family="sans" font-size="10.00">somatic_cnv_gene_calls_filtered</text>
</g>
<!-- 7&#45;&gt;9 -->
<g id="edge18" class="edge">
<title>7&#45;&gt;9</title>
<path fill="none" stroke="grey" stroke-width="2" d="M374.5,-287.7C374.5,-279.98 374.5,-270.71 374.5,-262.11"/>
<polygon fill="grey" stroke="grey" stroke-width="2" points="378,-262.1 374.5,-252.1 371,-262.1 378,-262.1"/>
</g>
<!-- 7&#45;&gt;11 -->
<g id="edge20" class="edge">
<title>7&#45;&gt;11</title>
<path fill="none" stroke="grey" stroke-width="2" d="M334.66,-287.85C316.36,-278.82 295.1,-266.57 278.5,-252 248.64,-225.79 241.79,-216.24 225.5,-180 216.66,-160.34 211.85,-136.35 209.28,-118.23"/>
<polygon fill="grey" stroke="grey" stroke-width="2" points="212.72,-117.54 207.98,-108.06 205.77,-118.43 212.72,-117.54"/>
</g>
<!-- 7&#45;&gt;12 -->
<g id="edge25" class="edge">
<title>7&#45;&gt;12</title>
<path fill="none" stroke="grey" stroke-width="2" d="M442.07,-293.21C466.83,-285.52 492.84,-272.85 509.5,-252 539.62,-214.31 540.51,-187.9 520.5,-144 515.27,-132.53 506.2,-122.58 496.63,-114.5"/>
<polygon fill="grey" stroke="grey" stroke-width="2" points="498.57,-111.58 488.54,-108.16 494.25,-117.09 498.57,-111.58"/>
</g>
<!-- 8 -->
<g id="node9" class="node">
<title>8</title>
<path fill="none" stroke="#d8a456" stroke-width="2" d="M466,-180C466,-180 371,-180 371,-180 365,-180 359,-174 359,-168 359,-168 359,-156 359,-156 359,-150 365,-144 371,-144 371,-144 466,-144 466,-144 472,-144 478,-150 478,-156 478,-156 478,-168 478,-168 478,-174 472,-180 466,-180"/>
<text text-anchor="middle" x="418.5" y="-159.5" font-family="sans" font-size="10.00">somatic_cna_oncokb</text>
</g>
<!-- 8&#45;&gt;0 -->
<g id="edge3" class="edge">
<title>8&#45;&gt;0</title>
<path fill="none" stroke="grey" stroke-width="2" d="M403.06,-143.87C380.57,-118.92 338.68,-72.45 312.83,-43.77"/>
<polygon fill="grey" stroke="grey" stroke-width="2" points="315.29,-41.27 305.99,-36.19 310.09,-45.96 315.29,-41.27"/>
</g>
<!-- 8&#45;&gt;11 -->
<g id="edge21" class="edge">
<title>8&#45;&gt;11</title>
<path fill="none" stroke="grey" stroke-width="2" d="M366.91,-143.97C337.03,-134.1 299.24,-121.62 267.84,-111.25"/>
<polygon fill="grey" stroke="grey" stroke-width="2" points="268.91,-107.92 258.32,-108.11 266.72,-114.57 268.91,-107.92"/>
</g>
<!-- 8&#45;&gt;12 -->
<g id="edge26" class="edge">
<title>8&#45;&gt;12</title>
<path fill="none" stroke="grey" stroke-width="2" d="M428.63,-143.7C433.35,-135.64 439.06,-125.89 444.28,-116.98"/>
<polygon fill="grey" stroke="grey" stroke-width="2" points="447.45,-118.5 449.48,-108.1 441.41,-114.96 447.45,-118.5"/>
</g>
<!-- 9&#45;&gt;8 -->
<g id="edge17" class="edge">
<title>9&#45;&gt;8</title>
<path fill="none" stroke="grey" stroke-width="2" d="M385.38,-215.7C390.49,-207.56 396.7,-197.69 402.34,-188.7"/>
<polygon fill="grey" stroke="grey" stroke-width="2" points="405.39,-190.43 407.75,-180.1 399.46,-186.71 405.39,-190.43"/>
</g>
<!-- 10 -->
<g id="node11" class="node">
<title>10</title>
<path fill="none" stroke="#56d87b" stroke-width="2" d="M328.5,-180C328.5,-180 246.5,-180 246.5,-180 240.5,-180 234.5,-174 234.5,-168 234.5,-168 234.5,-156 234.5,-156 234.5,-150 240.5,-144 246.5,-144 246.5,-144 328.5,-144 328.5,-144 334.5,-144 340.5,-150 340.5,-156 340.5,-156 340.5,-168 340.5,-168 340.5,-174 334.5,-180 328.5,-180"/>
<text text-anchor="middle" x="287.5" y="-159.5" font-family="sans" font-size="10.00">somatic_cna_civic</text>
</g>
<!-- 9&#45;&gt;10 -->
<g id="edge19" class="edge">
<title>9&#45;&gt;10</title>
<path fill="none" stroke="grey" stroke-width="2" d="M352.99,-215.7C342.04,-206.88 328.55,-196.03 316.68,-186.47"/>
<polygon fill="grey" stroke="grey" stroke-width="2" points="318.74,-183.65 308.76,-180.1 314.36,-189.1 318.74,-183.65"/>
</g>
<!-- 10&#45;&gt;0 -->
<g id="edge7" class="edge">
<title>10&#45;&gt;0</title>
<path fill="none" stroke="grey" stroke-width="2" d="M287.86,-143.87C288.37,-119.67 289.31,-75.21 289.92,-46.39"/>
<polygon fill="grey" stroke="grey" stroke-width="2" points="293.42,-46.26 290.14,-36.19 286.43,-46.11 293.42,-46.26"/>
</g>
<!-- 10&#45;&gt;11 -->
<g id="edge23" class="edge">
<title>10&#45;&gt;11</title>
<path fill="none" stroke="grey" stroke-width="2" d="M267.48,-143.7C257.37,-134.97 244.96,-124.24 233.98,-114.75"/>
<polygon fill="grey" stroke="grey" stroke-width="2" points="236.15,-111.99 226.29,-108.1 231.57,-117.29 236.15,-111.99"/>
</g>
<!-- 10&#45;&gt;12 -->
<g id="edge28" class="edge">
<title>10&#45;&gt;12</title>
<path fill="none" stroke="grey" stroke-width="2" d="M329.58,-143.88C353.3,-134.22 383.12,-122.09 408.2,-111.88"/>
<polygon fill="grey" stroke="grey" stroke-width="2" points="409.62,-115.08 417.56,-108.07 406.98,-108.6 409.62,-115.08"/>
</g>
<!-- 11&#45;&gt;0 -->
<g id="edge5" class="edge">
<title>11&#45;&gt;0</title>
<path fill="none" stroke="grey" stroke-width="2" d="M227.26,-71.7C237.74,-62.97 250.61,-52.24 262,-42.75"/>
<polygon fill="grey" stroke="grey" stroke-width="2" points="264.53,-45.19 269.97,-36.1 260.05,-39.82 264.53,-45.19"/>
</g>
<!-- 12&#45;&gt;0 -->
<g id="edge9" class="edge">
<title>12&#45;&gt;0</title>
<path fill="none" stroke="grey" stroke-width="2" d="M418.16,-71.88C390.31,-60.34 353.91,-45.26 327.11,-34.16"/>
<polygon fill="grey" stroke="grey" stroke-width="2" points="328.28,-30.86 317.7,-30.27 325.6,-37.33 328.28,-30.86"/>
</g>
</g>
</svg>
